# xmcd
# Track frame offsets:
# 150
# 10984
# 29630
# 43339
# 60998
# 77859
# 92886
# 107069
# 119116
# 130650
# 141985
# 176959
# 195731
# 209807
#
# Disc length: 2991 seconds
# Revision: 2
# Processed by: cddbd v1.5.2PL0 Copyright (c) Steve Scherf et al.
# Submitted via: VisiTrax 2.11.2.271 - For more info visit www.synapsa.com
#
DISCID=db0bad0e
DTITLE=Slim Dusty - Henry Lawson and Banjo Patterson Disc 2
DYEAR=1989
DGENRE=Australian Country
TTITLE0=Only The Two Of Us Here
TTITLE1=Ballad Of The Drover
TTITLE2=Written Afterwards
TTITLE3=The Brass Well
TTITLE4=Mount Bukaroo
TTITLE5=The Old Jimmy Woodser
TTITLE6=Break O'Day
TTITLE7=To An Old Mate
TTITLE8=Andy's Return
TTITLE9=On The Night Train
TTITLE10=The Man From Snowy River
TTITLE11=The Man From Ironbark
TTITLE12=Clancy Of The Overflow
TTITLE13=Waltzing Matilda
EXTD=
EXTT0=
EXTT1=
EXTT2=
EXTT3=
EXTT4=
EXTT5=
EXTT6=
EXTT7=
EXTT8=
EXTT9=
EXTT10=
EXTT11=
EXTT12=
EXTT13=
PLAYORDER=
